<?xml version="1.0" standalone="no"?>
<!DOCTYPE svg PUBLIC "-//W3C//DTD SVG 20010904//EN" "http://www.w3.org/TR/2001/REC-SVG-20010904/DTD/svg10.dtd">
<!-- Created using Krita: https://krita.org -->
<svg xmlns="http://www.w3.org/2000/svg"
    width="46.08pt"
    height="46.08pt"
    viewBox="0 0 46.08 46.08">
<defs/>
<path id="shape0" transform="translate(12.1392557798381, 20.4156850763382)" fill="#0000ff" fill-rule="evenodd" stroke="#ff0000" stroke-width="1.44" stroke-linecap="square" stroke-linejoin="bevel" d="M3.89793 2.62431C0.928078 4.44701 -0.344715 6.86449 0.0795495 9.87677C0.715946 14.3952 2.68877 17.4499 5.42528 18.4681C8.16178 19.4864 10.7074 18.9136 12.1711 18.0863C13.6348 17.259 16.244 14.9679 16.6895 13.186C17.135 11.4041 17.4532 7.39482 16.8168 6.44023C16.1804 5.48564 13.1257 -0.305568 9.11637 0.01263C5.10708 0.330828 5.10708 0.330828 3.89793 2.62431Z"/><path id="shape1" transform="translate(13.8734351769578, 0)" fill="#0000ff" fill-rule="evenodd" stroke="#ff0000" stroke-width="1.44" stroke-linecap="square" stroke-linejoin="bevel" d="M0.509117 21.8284L0 2.41831L5.21845 0L22.1466 4.51841L15.1462 25.1376L11.9006 26.7923C10.3308 23.4406 8.69741 21.6587 7.00036 21.4465C4.45477 21.1284 4.45477 21.1284 0.509117 21.8284Z"/><path id="shape2" transform="translate(25.7740424159079, 4.70933120685725)" fill="none" stroke="#ff0000" stroke-width="1.44" stroke-linecap="square" stroke-linejoin="bevel" d="M0 21.7647L5.21845 2.41831L10.0551 0"/><path id="shape3" transform="translate(13.6825163442474, 2.67286365794601)" fill="none" stroke="#ff0000" stroke-width="1.44" stroke-linecap="square" stroke-linejoin="bevel" d="M17.31 4.26385L0 0"/><path id="shape4" transform="translate(15.5280650604482, 22.7843640973824)" fill="none" stroke="#ff0000" stroke-width="1.44" stroke-linecap="square" stroke-linejoin="bevel" d="M0 0.255636C3.0547 -0.424827 5.28209 0.253175 6.68216 2.28964C8.78227 5.34434 10.4369 10.1173 9.4823 12.472C8.84591 14.0418 7.80646 15.3994 6.36396 16.5449"/>
</svg>
