<?xml version="1.0" standalone="no"?>
<!DOCTYPE svg PUBLIC "-//W3C//DTD SVG 20010904//EN" "http://www.w3.org/TR/2001/REC-SVG-20010904/DTD/svg10.dtd">
<!-- Created using Krita: https://krita.org -->
<svg xmlns="http://www.w3.org/2000/svg"
    width="46.08pt"
    height="46.08pt"
    viewBox="0 0 46.08 46.08">
<defs/>
<path id="shape0" transform="translate(6.68215895366673, 2.15876621766078)" fill="#d1d1cc" fill-rule="evenodd" d="M0 37.8705L22.9103 41.498L27.6832 39.5888L27.6832 8.02357C22.889 2.80512 18.3494 0.13226 14.0644 0.00498049C9.77929 -0.122299 5.09117 2.18994 0 6.9417C0.0848528 6.98412 0.0848528 17.2937 0 37.8705Z"/><path id="shape1" transform="translate(6.80943817183181, 2.32850912413064)" fill="none" stroke="#161616" stroke-width="1.44" stroke-linecap="square" stroke-linejoin="bevel" d="M22.4648 41.5192L0.127279 37.7644L0 7.85383C1.31522 3.61119 4.85782 1.68079 10.6278 2.06262C16.3978 2.44446 20.3435 5.64766 22.4648 11.6722L22.5284 41.5828L27.556 39.6736C27.556 20.7515 27.5347 10.5055 27.4923 8.9357C27.4287 6.58104 20.6829 -0.48296 14.0007 0.0261564C9.54594 0.365568 6.55488 1.2141 5.02753 2.57174"/><path id="shape2" transform="translate(9.03682448972072, 11.6795364438847)" fill="none" stroke="#161616" stroke-width="1.44" stroke-linecap="square" stroke-linejoin="bevel" d="M0 9.83065C0.933381 4.40007 1.25158 1.36658 0.954594 0.730187C0.509117 -0.224407 7.31856 -0.924443 6.7458 3.21213C6.36396 5.96985 4.32749 6.47897 0.636396 4.73948C3.52139 7.11372 4.96389 8.81078 4.96389 9.83065C4.96389 10.8505 4.90025 10.7869 4.77297 9.63973"/><path id="shape3" transform="translate(17.4845746492159, 12.9824802528382)" fill="none" stroke="#161616" stroke-width="1.44" stroke-linecap="square" stroke-linejoin="bevel" d="M1.41639 0C1.67095 6.07026 1.39518 9.42276 0.589074 10.0575C-0.217027 10.6923 -0.195814 10.6923 0.652714 10.0575"/><path id="shape4" transform="translate(21.7647463062288, 12.9824802528382)" fill="none" stroke="#161616" stroke-width="1.44" stroke-linecap="square" stroke-linejoin="bevel" d="M0 11.2642L1.27525 0C4.83579 1.56978 5.72592 3.24562 3.94566 5.02753C2.16539 6.80944 1.04109 7.02157 0.572756 5.66393"/><path id="shape5" transform="translate(8.8459056624731, 31.56524610494)" fill="none" stroke="#161616" stroke-width="1.44" stroke-linecap="square" stroke-linejoin="bevel" d="M0 0C2.58801 1.6122 4.30628 2.37588 5.15481 2.29103C6.00334 2.20617 6.4276 2.16375 6.4276 2.16375"/><path id="shape6" transform="translate(20.5555937336605, 32.9016778956733)" fill="none" stroke="#161616" stroke-width="1.44" stroke-linecap="square" stroke-linejoin="bevel" d="M0 0.509117C5.09117 0.700036 4.20021 1.40007 5.09117 0.700036C5.68514 0.233345 5.98212 0 5.98212 0"/>
</svg>
